<?xml version="1.0" encoding="UTF-8"?>
<svg viewBox="0 0 125.59338 230.71487" xmlns="http://www.w3.org/2000/svg">
 <g transform="translate(355.46 48.344)">
  <path d="m-272.17 27.755c-2.3532 6.9409-4.5216 14.096-6.4668 17.719-5.3166 1.2335-10.88-3.7192-10.864-3.128-0.01 11.372 6.8685 26.435 11.26 40.043 1.2536 5.4318 10.028 32.591 10.028 32.591l17.967 42.274-1.7323 1.531c2.806 4.1848 2.4239 5.5754 7.896 4.456 5.4318-1.2535 7.5368-4.5479 10.794-1.4609s4.0716 7.5147 2.5803 11.382c-7.1033 1.6714-24.552 9.0888-24.552 9.0888h-13.788l-1.2536-17.476-3.3426 0.83573s-10.864-32.664-12.535-40.185-18.385-27.577-18.385-27.577-8.7745 24.652-11.281 32.173-10.864 34.68-10.864 34.68l-3.1259-1.7048c-0.6275 4.2787-4.065 2.5752-0.2169 5.4654 6.4701 2.6693 9.8107-3.4244 14.903-0.6987s0.5567 13.234 0.5567 13.234h-40.53c-1.4523-8.4572 4.7151-12.929 4.8036-20.265l-1.8787-0.41781s12.117-24.025 14.206-33.218 9.61-33.844 10.028-41.783-0.4179-32.591-2.0893-34.68-11.908-8.5658-11.49-12.744c2.0843-11.862 8.4634-22.468 9.401-34.471l16.296-13.788-0.8357-12.117 6.2674 2.9249v-10.864l-9.6101-4.1781 1.2535-3.3428 11.281-1.2535s3.7605-7.521 8.7746-8.7745 15.042 2.507 17.549 5.014 0.8356 11.699 0.8356 11.699l8.3567 7.521-0.8356 4.5962s-10.446-5.8496-10.864-4.1783c-2.0605 5.5509-6.6338 9.8151-10.864 13.789 0 0 2.4829 3.8728 4.1028 8.8614 0.5597 1.7237 5.0646 5.666 5.8227 7.1713 0.666 1.3224-5.9217 0.0299-5.9562 1.0984 0.031 6.6446-0.648 17.879 8.0717 19.474 0.9109-2.2026 7.2353-21.847 7.9657-19.934 0.092 0.2415 0.3193-3.548 1.2967-4.9432 0.6543-0.93393 0.7058-1.7706 4.0141-2.5487 3.9187-8.4558 12.484-14.103 12.484-14.103l23.467 9.9106s-7.6968-0.54106-12.357 10.734-8.7584 27.323-8.7584 27.323l-17.786-5.754z" stroke="#000" stroke-width=".23923"/>
 </g>
</svg>
